<svg width="30" height="34" viewBox="0 0 30 34" fill="none" xmlns="http://www.w3.org/2000/svg">
<g clip-path="url(#clip0_1_3443)">
<mask id="mask0_1_3443" style="mask-type:alpha" maskUnits="userSpaceOnUse" x="0" y="0" width="30" height="34">
<path d="M27.3716 34H2.54897C1.22616 34 0.153809 32.9127 0.153809 31.5714V2.42857C0.153809 1.08731 1.22616 0 2.54897 0H18.6619L29.7667 11.2597V31.5714C29.7667 32.9127 28.6943 34 27.3716 34Z" fill="url(#paint0_linear_1_3443)"/>
</mask>
<g mask="url(#mask0_1_3443)">
<path d="M27.3716 34H2.54897C1.22616 34 0.153809 32.9127 0.153809 31.5714V2.42857C0.153809 1.08731 1.22616 0 2.54897 0H18.6619L29.7667 11.2597V31.5714C29.7667 32.9127 28.6943 34 27.3716 34Z" fill="url(#paint1_linear_1_3443)"/>
<g opacity="0.27" filter="url(#filter0_f_1_3443)">
<g style="mix-blend-mode:darken" opacity="0.27">
<path d="M24.7584 16.448H5.37939V25.7207H24.7584V16.448Z" fill="#0072A2"/>
</g>
</g>
<path opacity="0.11" d="M8.10156 14.4611H21.8193" stroke="white" stroke-width="12"/>
<path opacity="0.11" d="M8.10156 17.7727H21.8193" stroke="white" stroke-width="12"/>
<path opacity="0.11" d="M8.10156 21.0845H21.8193" stroke="white" stroke-width="12"/>
<path opacity="0.11" d="M8.10156 24.3961H21.8193" stroke="white" stroke-width="12"/>
<path opacity="0.11" d="M8.10156 27.7078H21.8193" stroke="white" stroke-width="12"/>
<path d="M5.86995 23.9546C5.761 23.9546 5.66926 23.9168 5.59472 23.8412C5.52018 23.7656 5.48291 23.6727 5.48291 23.5622V18.2686C5.48291 18.1581 5.52018 18.0652 5.59472 17.9896C5.66926 17.9082 5.761 17.8675 5.86995 17.8675H7.59871C8.25237 17.8675 8.80568 18.0157 9.25866 18.3122C9.71737 18.6029 10.0614 18.9809 10.2908 19.4459C10.5201 19.911 10.6348 20.3994 10.6348 20.911C10.6348 21.4227 10.5201 21.9111 10.2908 22.3761C10.0614 22.8412 9.71737 23.222 9.25866 23.5185C8.80568 23.8092 8.25237 23.9546 7.59871 23.9546H5.86995ZM7.5041 23.2133C7.97428 23.2133 8.38712 23.1174 8.74262 22.9255C9.09811 22.7278 9.37334 22.4575 9.56829 22.1145C9.76325 21.7657 9.86072 21.3645 9.86072 20.911C9.86072 20.4576 9.76325 20.0593 9.56829 19.7163C9.37334 19.3675 9.09811 19.0971 8.74262 18.9053C8.38712 18.7075 7.97428 18.6087 7.5041 18.6087H6.26558V23.2133H7.5041ZM15.2017 24.0418C14.5996 24.0418 14.072 23.9081 13.6191 23.6406C13.1661 23.3732 12.8163 23.004 12.5698 22.5331C12.3232 22.0622 12.1942 21.5215 12.1828 20.911C12.1942 20.3006 12.3232 19.7599 12.5698 19.289C12.8163 18.818 13.1661 18.4489 13.6191 18.1814C14.072 17.914 14.5996 17.7803 15.2017 17.7803C15.8037 17.7803 16.3284 17.914 16.7756 18.1814C17.2285 18.4489 17.5783 18.8209 17.8249 19.2977C18.0772 19.7686 18.209 20.3064 18.2206 20.911C18.209 21.5156 18.0772 22.0563 17.8249 22.5331C17.5783 23.004 17.2285 23.3732 16.7756 23.6406C16.3284 23.9081 15.8037 24.0418 15.2017 24.0418ZM15.2017 23.3005C15.6603 23.3005 16.0588 23.1959 16.3972 22.9866C16.7354 22.7773 16.9935 22.4924 17.1713 22.1319C17.3489 21.7715 17.4379 21.3645 17.4379 20.911C17.4379 20.4576 17.3489 20.0505 17.1713 19.6901C16.9935 19.3297 16.7354 19.0448 16.3972 18.8355C16.0588 18.6262 15.6603 18.5215 15.2017 18.5215C14.7372 18.5215 14.3358 18.6262 13.9976 18.8355C13.665 19.0448 13.4098 19.3297 13.2321 19.6901C13.0543 20.0505 12.9655 20.4576 12.9655 20.911C12.9655 21.3645 13.0543 21.7715 13.2321 22.1319C13.4098 22.4924 13.665 22.7773 13.9976 22.9866C14.3358 23.1959 14.7372 23.3005 15.2017 23.3005ZM22.7748 24.0418C22.2014 24.0418 21.6854 23.9168 21.2267 23.6668C20.7737 23.411 20.4154 23.0476 20.1516 22.5767C19.8936 22.0999 19.7646 21.5448 19.7646 20.911C19.7646 20.2773 19.8936 19.725 20.1516 19.2541C20.4154 18.7773 20.7737 18.414 21.2267 18.164C21.6854 17.9082 22.2014 17.7803 22.7748 17.7803C23.1647 17.7803 23.5117 17.8267 23.8155 17.9198C24.1252 18.0129 24.432 18.1465 24.7358 18.321C24.862 18.3907 24.925 18.5012 24.925 18.6524C24.925 18.7396 24.8935 18.818 24.8304 18.8878C24.7674 18.9517 24.6842 18.9837 24.581 18.9837C24.5236 18.9837 24.472 18.9722 24.4262 18.9489C24.1739 18.8152 23.9274 18.7134 23.6865 18.6436C23.4457 18.5739 23.1677 18.539 22.8523 18.539C22.3592 18.539 21.9377 18.6436 21.5879 18.8529C21.2439 19.0564 20.983 19.3384 20.8053 19.6988C20.6332 20.0535 20.5472 20.4576 20.5472 20.911C20.5472 21.3645 20.6332 21.7715 20.8053 22.1319C20.983 22.4866 21.2439 22.7686 21.5879 22.9779C21.9377 23.1813 22.3592 23.2831 22.8523 23.2831C23.1677 23.2831 23.4457 23.2482 23.6865 23.1784C23.9274 23.1087 24.1739 23.0069 24.4262 22.8732C24.472 22.8499 24.5236 22.8383 24.581 22.8383C24.6842 22.8383 24.7674 22.8703 24.8304 22.9343C24.8935 22.9982 24.925 23.0767 24.925 23.1697C24.925 23.3208 24.862 23.4313 24.7358 23.5011C24.432 23.6755 24.1252 23.8092 23.8155 23.9023C23.5117 23.9953 23.1647 24.0418 22.7748 24.0418Z" fill="white"/>
<path d="M5.59469 23.8412L5.74865 23.6851L5.59469 23.8412ZM5.59469 17.9895L5.74865 18.1456L5.75151 18.1427L5.75425 18.1398L5.59469 17.9895ZM9.25863 18.3122L9.14054 18.4977L9.14188 18.4985L9.14323 18.4994L9.25863 18.3122ZM10.2907 19.4459L10.096 19.5446L10.2907 19.4459ZM10.2907 22.3761L10.096 22.2774L10.2907 22.3761ZM9.25863 23.5185L9.37508 23.7051L9.37568 23.7046L9.25863 23.5185ZM8.74258 22.9255L8.84489 23.1203L8.84609 23.1198L8.84729 23.1191L8.74258 22.9255ZM9.56826 22.1145L9.75692 22.2247L9.75732 22.224L9.75771 22.2233L9.56826 22.1145ZM9.56826 19.7162L9.37883 19.8251L9.37921 19.8257L9.37961 19.8265L9.56826 19.7162ZM8.74258 18.9052L8.63788 19.0988L8.63908 19.0995L8.64028 19.1L8.74258 18.9052ZM6.26555 18.6087V18.3879H6.04781V18.6087H6.26555ZM6.26555 23.2133H6.04781V23.4341H6.26555V23.2133ZM5.86991 23.7338C5.81656 23.7338 5.78086 23.7178 5.74865 23.6851L5.44072 23.9973C5.5576 24.1158 5.70538 24.1753 5.86991 24.1753V23.7338ZM5.74865 23.6851C5.71645 23.6524 5.70062 23.6162 5.70062 23.5621H5.26514C5.26514 23.7289 5.32385 23.8788 5.44072 23.9973L5.74865 23.6851ZM5.70062 23.5621V18.2686H5.26514V23.5621H5.70062ZM5.70062 18.2686C5.70062 18.2145 5.71645 18.1783 5.74865 18.1456L5.44072 17.8334C5.32385 17.9519 5.26514 18.1018 5.26514 18.2686H5.70062ZM5.75425 18.1398C5.78785 18.1031 5.8219 18.0882 5.86991 18.0882V17.6467C5.70004 17.6467 5.55061 17.7132 5.43513 17.8393L5.75425 18.1398ZM5.86991 18.0882H7.59868V17.6467H5.86991V18.0882ZM7.59868 18.0882C8.21942 18.0882 8.72961 18.2287 9.14054 18.4977L9.37673 18.1267C8.88171 17.8026 8.28526 17.6467 7.59868 17.6467V18.0882ZM9.14323 18.4994C9.56991 18.7698 9.88553 19.1179 10.096 19.5446L10.4855 19.3472C10.2372 18.8437 9.86478 18.4359 9.37404 18.125L9.14323 18.4994ZM10.096 19.5446C10.3105 19.9796 10.417 20.4342 10.417 20.911H10.8525C10.8525 20.3646 10.7297 19.8424 10.4855 19.3472L10.096 19.5446ZM10.417 20.911C10.417 21.3878 10.3105 21.8423 10.096 22.2774L10.4855 22.4748C10.7297 21.9796 10.8525 21.4574 10.8525 20.911H10.417ZM10.096 22.2774C9.88533 22.7045 9.56916 23.056 9.14159 23.3324L9.37568 23.7046C9.86552 23.388 10.2374 22.9778 10.4855 22.4748L10.096 22.2774ZM9.14218 23.3319C8.731 23.5958 8.22019 23.7338 7.59868 23.7338V24.1753C8.28449 24.1753 8.88032 24.0225 9.37508 23.7051L9.14218 23.3319ZM7.59868 23.7338H5.86991V24.1753H7.59868V23.7338ZM7.50407 23.4341C8.00393 23.4341 8.453 23.3318 8.84489 23.1203L8.64028 22.7306C8.32117 22.9029 7.94456 22.9925 7.50407 22.9925V23.4341ZM8.84729 23.1191C9.23637 22.9027 9.54126 22.6041 9.75692 22.2247L9.37961 22.0042C9.20536 22.3108 8.9598 22.5529 8.63788 22.7319L8.84729 23.1191ZM9.75771 22.2233C9.97353 21.8372 10.0784 21.3976 10.0784 20.911H9.64295C9.64295 21.3314 9.5529 21.6941 9.37883 22.0056L9.75771 22.2233ZM10.0784 20.911C10.0784 20.4245 9.97356 19.9871 9.75692 19.606L9.37961 19.8265C9.55288 20.1313 9.64295 20.4905 9.64295 20.911H10.0784ZM9.75771 19.6074C9.54196 19.2214 9.23619 18.9215 8.84489 18.7104L8.64028 19.1C8.95998 19.2726 9.20465 19.5135 9.37883 19.8251L9.75771 19.6074ZM8.84729 18.7116C8.4549 18.4935 8.00496 18.3879 7.50407 18.3879V18.8295C7.94354 18.8295 8.31927 18.9217 8.63788 19.0988L8.84729 18.7116ZM7.50407 18.3879H6.26555V18.8295H7.50407V18.3879ZM6.04781 18.6087V23.2133H6.48329V18.6087H6.04781ZM6.26555 23.4341H7.50407V22.9925H6.26555V23.4341ZM13.6191 23.6406L13.7286 23.4498L13.6191 23.6406ZM12.5698 22.5331L12.3774 22.6366L12.5698 22.5331ZM12.1828 20.911L11.965 20.9068L11.9649 20.911L11.965 20.9152L12.1828 20.911ZM12.5698 19.2889L12.7621 19.3925L12.5698 19.2889ZM13.6191 18.1814L13.5095 17.9906L13.6191 18.1814ZM16.7756 18.1814L16.665 18.3716L16.666 18.3721L16.7756 18.1814ZM17.8249 19.2976L17.632 19.4002L17.6327 19.4016L17.6335 19.4031L17.8249 19.2976ZM18.2205 20.911L18.4382 20.9152L18.4383 20.911L18.4382 20.9068L18.2205 20.911ZM17.8249 22.5331L17.6329 22.4286L17.6325 22.4295L17.8249 22.5331ZM16.7756 23.6406L16.666 23.4498L16.665 23.4504L16.7756 23.6406ZM16.3972 22.9865L16.2837 22.7981L16.3972 22.9865ZM17.1712 22.1319L17.3659 22.2306L17.1712 22.1319ZM17.1712 19.6901L17.3659 19.5914L17.1712 19.6901ZM16.3972 18.8354L16.2837 19.0239L16.3972 18.8354ZM13.9975 18.8354L13.8841 18.647L13.8833 18.6474L13.8827 18.6479L13.9975 18.8354ZM13.2321 19.6901L13.0373 19.5914L13.2321 19.6901ZM13.2321 22.1319L13.0373 22.2306L13.2321 22.1319ZM13.9975 22.9865L13.8827 23.1741L13.8833 23.1745L13.8841 23.175L13.9975 22.9865ZM15.2016 23.821C14.6322 23.821 14.1436 23.6948 13.7286 23.4498L13.5095 23.8313C14.0004 24.1212 14.5668 24.2625 15.2016 24.2625V23.821ZM13.7286 23.4498C13.3108 23.2031 12.9897 22.8642 12.7621 22.4295L12.3774 22.6366C12.643 23.1437 13.0213 23.5432 13.5095 23.8313L13.7286 23.4498ZM12.7621 22.4295C12.5338 21.9934 12.4113 21.4877 12.4004 20.9068L11.965 20.9152C11.977 21.5552 12.1126 22.1309 12.3774 22.6366L12.7621 22.4295ZM12.4004 20.9152C12.4113 20.3343 12.5338 19.8286 12.7621 19.3925L12.3774 19.1854C12.1126 19.6911 11.977 20.2668 11.965 20.9068L12.4004 20.9152ZM12.7621 19.3925C12.9897 18.9578 13.3108 18.6189 13.7286 18.3721L13.5095 17.9906C13.0213 18.2787 12.643 18.6782 12.3774 19.1854L12.7621 19.3925ZM13.7286 18.3721C14.1436 18.1272 14.6322 18.001 15.2016 18.001V17.5594C14.5668 17.5594 14.0004 17.7007 13.5095 17.9906L13.7286 18.3721ZM15.2016 18.001C15.771 18.001 16.2563 18.1272 16.665 18.3716L16.8862 17.9912C16.4004 17.7007 15.8362 17.5594 15.2016 17.5594V18.001ZM16.666 18.3721C17.083 18.6184 17.4042 18.9597 17.632 19.4002L18.0177 19.1951C17.7524 18.6821 17.3739 18.2792 16.8851 17.9906L16.666 18.3721ZM17.6335 19.4031C17.8671 19.8391 17.9919 20.3414 18.0028 20.9152L18.4382 20.9068C18.4261 20.2713 18.2872 19.698 18.0162 19.1922L17.6335 19.4031ZM18.0028 20.9068C17.9919 21.4806 17.8671 21.9863 17.6329 22.4286L18.0167 22.6375C18.2871 22.1264 18.4261 21.5507 18.4382 20.9152L18.0028 20.9068ZM17.6325 22.4295C17.405 22.8642 17.0838 23.2031 16.666 23.4498L16.8851 23.8313C17.3733 23.5432 17.7516 23.1437 18.0171 22.6366L17.6325 22.4295ZM16.665 23.4504C16.2563 23.6948 15.771 23.821 15.2016 23.821V24.2625C15.8362 24.2625 16.4004 24.1212 16.8862 23.8308L16.665 23.4504ZM15.2016 23.5213C15.694 23.5213 16.1329 23.4086 16.5105 23.175L16.2837 22.7981C15.9846 22.9831 15.6267 23.0797 15.2016 23.0797V23.5213ZM16.5105 23.175C16.8838 22.944 17.1699 22.628 17.3659 22.2306L16.9765 22.0332C16.8168 22.3567 16.587 22.6104 16.2837 22.7981L16.5105 23.175ZM17.3659 22.2306C17.5605 21.8358 17.6556 21.3944 17.6556 20.911H17.2201C17.2201 21.3346 17.1373 21.707 16.9765 22.0332L17.3659 22.2306ZM17.6556 20.911C17.6556 20.4276 17.5605 19.9861 17.3659 19.5914L16.9765 19.7888C17.1373 20.115 17.2201 20.4874 17.2201 20.911H17.6556ZM17.3659 19.5914C17.1699 19.194 16.8838 18.8779 16.5105 18.647L16.2837 19.0239C16.587 19.2115 16.8168 19.4653 16.9765 19.7888L17.3659 19.5914ZM16.5105 18.647C16.1329 18.4134 15.694 18.3007 15.2016 18.3007V18.7423C15.6267 18.7423 15.9846 18.8389 16.2837 19.0239L16.5105 18.647ZM15.2016 18.3007C14.7041 18.3007 14.262 18.4131 13.8841 18.647L14.1109 19.0239C14.4095 18.8392 14.7702 18.7423 15.2016 18.7423V18.3007ZM13.8827 18.6479C13.5153 18.879 13.2327 19.195 13.0373 19.5914L13.4267 19.7888C13.5868 19.4643 13.8145 19.2104 14.1123 19.023L13.8827 18.6479ZM13.0373 19.5914C12.8426 19.9861 12.7477 20.4276 12.7477 20.911H13.1832C13.1832 20.4874 13.2659 20.115 13.4267 19.7888L13.0373 19.5914ZM12.7477 20.911C12.7477 21.3944 12.8426 21.8358 13.0373 22.2306L13.4267 22.0332C13.2659 21.707 13.1832 21.3346 13.1832 20.911H12.7477ZM13.0373 22.2306C13.2327 22.627 13.5153 22.9429 13.8827 23.1741L14.1123 22.799C13.8145 22.6115 13.5868 22.3576 13.4267 22.0332L13.0373 22.2306ZM13.8841 23.175C14.262 23.4089 14.7041 23.5213 15.2016 23.5213V23.0797C14.7702 23.0797 14.4095 22.9828 14.1109 22.7981L13.8841 23.175ZM21.2267 23.6668L21.1207 23.8596L21.1221 23.8605L21.1236 23.8613L21.2267 23.6668ZM20.1516 22.5767L19.9607 22.6829L19.9615 22.6843L19.9622 22.6857L20.1516 22.5767ZM20.1516 19.254L19.9617 19.146L19.9613 19.1469L20.1516 19.254ZM21.2267 18.1639L21.3307 18.3579L21.3316 18.3573L21.2267 18.1639ZM23.8155 17.9198L23.7526 18.1312L23.7537 18.1315L23.8155 17.9198ZM24.7358 18.3209L24.6286 18.5131L24.63 18.5139L24.6315 18.5148L24.7358 18.3209ZM24.8304 18.8878L24.9843 19.0439L24.9877 19.0404L24.9909 19.0369L24.8304 18.8878ZM24.4262 18.9488L24.3252 19.1444L24.327 19.1454L24.3287 19.1463L24.4262 18.9488ZM23.6865 18.6436L23.7463 18.4313L23.6865 18.6436ZM21.5879 18.8529L21.6976 19.0436L21.6985 19.043L21.5879 18.8529ZM20.8052 19.6988L20.6105 19.6001L20.6098 19.6013L20.8052 19.6988ZM20.8052 22.1319L20.6093 22.228L20.6101 22.23L20.6111 22.2319L20.8052 22.1319ZM21.5879 22.9778L21.4759 23.1671L21.4777 23.1682L21.4796 23.1693L21.5879 22.9778ZM23.6865 23.1784L23.7463 23.3907L23.6865 23.1784ZM24.4262 22.8732L24.3287 22.6757L24.327 22.6766L24.3252 22.6776L24.4262 22.8732ZM24.8304 22.9342L24.9843 22.7781L24.8304 22.9342ZM24.7358 23.5011L24.6315 23.3072L24.63 23.3081L24.6286 23.3089L24.7358 23.5011ZM23.8155 23.9022L23.7537 23.6905L23.7526 23.6908L23.8155 23.9022ZM22.7748 23.821C22.2337 23.821 21.7536 23.7033 21.3298 23.4722L21.1236 23.8613C21.6171 24.1302 22.1692 24.2625 22.7748 24.2625V23.821ZM21.3326 23.4739C20.9155 23.2383 20.5856 22.9045 20.3409 22.4676L19.9622 22.6857C20.2451 23.1906 20.6318 23.5835 21.1207 23.8596L21.3326 23.4739ZM20.3424 22.4705C20.1047 22.0312 19.9823 21.5137 19.9823 20.911H19.5468C19.5468 21.5756 19.6823 22.1685 19.9607 22.6829L20.3424 22.4705ZM19.9823 20.911C19.9823 20.3082 20.1048 19.7941 20.3419 19.3612L19.9613 19.1469C19.6823 19.6559 19.5468 20.2464 19.5468 20.911H19.9823ZM20.3414 19.362C20.5861 18.9199 20.9155 18.5871 21.3307 18.3579L21.1226 17.97C20.6319 18.2408 20.2445 18.6348 19.9617 19.146L20.3414 19.362ZM21.3316 18.3573C21.7551 18.1212 22.2345 18.001 22.7748 18.001V17.5594C22.1683 17.5594 21.6156 17.6951 21.1217 17.9705L21.3316 18.3573ZM22.7748 18.001C23.148 18.001 23.4731 18.0456 23.7526 18.1312L23.8784 17.7084C23.5501 17.6079 23.1813 17.5594 22.7748 17.5594V18.001ZM23.7537 18.1315C24.0462 18.2194 24.3379 18.3462 24.6286 18.5131L24.843 18.1287C24.526 17.9468 24.2041 17.8062 23.8773 17.708L23.7537 18.1315ZM24.6315 18.5148C24.6646 18.5331 24.6804 18.5513 24.6893 18.5668C24.6983 18.5826 24.7073 18.6084 24.7073 18.6523H25.1428C25.1428 18.5451 25.1201 18.44 25.0661 18.3454C25.0119 18.2505 24.9331 18.1785 24.8401 18.1271L24.6315 18.5148ZM24.7073 18.6523C24.7073 18.6794 24.6995 18.7057 24.6699 18.7386L24.9909 19.0369C25.0873 18.9303 25.1428 18.7997 25.1428 18.6523H24.7073ZM24.6765 18.7317C24.6607 18.7477 24.6363 18.7629 24.581 18.7629V19.2045C24.7321 19.2045 24.874 19.1558 24.9843 19.0439L24.6765 18.7317ZM24.581 18.7629C24.5534 18.7629 24.5358 18.7575 24.5235 18.7513L24.3287 19.1463C24.4083 19.1866 24.4939 19.2045 24.581 19.2045V18.7629ZM24.527 18.7532C24.2634 18.6134 24.0031 18.5057 23.7463 18.4313L23.6266 18.8559C23.8515 18.921 24.0843 19.0168 24.3252 19.1444L24.527 18.7532ZM23.7463 18.4313C23.4817 18.3547 23.1829 18.3182 22.8522 18.3182V18.7597C23.1523 18.7597 23.4095 18.7929 23.6266 18.8559L23.7463 18.4313ZM22.8522 18.3182C22.3285 18.3182 21.867 18.4295 21.4772 18.6628L21.6985 19.043C22.0083 18.8576 22.3897 18.7597 22.8522 18.7597V18.3182ZM21.4782 18.6621C21.0977 18.8872 20.8072 19.2012 20.6105 19.6001L21 19.7975C21.1587 19.4756 21.3901 19.2254 21.6976 19.0436L21.4782 18.6621ZM20.6098 19.6013C20.4211 19.9906 20.3295 20.4287 20.3295 20.911H20.7649C20.7649 20.4863 20.8453 20.1164 21.0006 19.7963L20.6098 19.6013ZM20.3295 20.911C20.3295 21.3934 20.4211 21.8338 20.6093 22.228L21.0012 22.0357C20.8453 21.709 20.7649 21.3355 20.7649 20.911H20.3295ZM20.6111 22.2319C20.8078 22.6245 21.0975 22.937 21.4759 23.1671L21.6999 22.7885C21.3902 22.6001 21.1581 22.3487 20.9993 22.0319L20.6111 22.2319ZM21.4796 23.1693C21.8689 23.3959 22.3295 23.5038 22.8522 23.5038V23.0623C22.3886 23.0623 22.0064 22.9668 21.6962 22.7863L21.4796 23.1693ZM22.8522 23.5038C23.1829 23.5038 23.4817 23.4673 23.7463 23.3907L23.6266 22.9661C23.4095 23.029 23.1523 23.0623 22.8522 23.0623V23.5038ZM23.7463 23.3907C24.0031 23.3163 24.2634 23.2085 24.527 23.0688L24.3252 22.6776C24.0843 22.8052 23.8515 22.901 23.6266 22.9661L23.7463 23.3907ZM24.5235 23.0706C24.5358 23.0645 24.5534 23.0591 24.581 23.0591V22.6175C24.4939 22.6175 24.4083 22.6354 24.3287 22.6757L24.5235 23.0706ZM24.581 23.0591C24.6363 23.0591 24.6607 23.0743 24.6765 23.0903L24.9843 22.7781C24.874 22.6662 24.7321 22.6175 24.581 22.6175V23.0591ZM24.6765 23.0903C24.6974 23.1116 24.7073 23.1334 24.7073 23.1697H25.1428C25.1428 23.02 25.0895 22.8848 24.9843 22.7781L24.6765 23.0903ZM24.7073 23.1697C24.7073 23.2136 24.6983 23.2393 24.6893 23.2552C24.6804 23.2707 24.6646 23.2889 24.6315 23.3072L24.8401 23.6949C24.9331 23.6435 25.0119 23.5715 25.0661 23.4766C25.1201 23.3819 25.1428 23.2769 25.1428 23.1697H24.7073ZM24.6286 23.3089C24.3379 23.4758 24.0462 23.6026 23.7537 23.6905L23.8773 24.1139C24.2041 24.0158 24.526 23.8752 24.843 23.6932L24.6286 23.3089ZM23.7526 23.6908C23.4731 23.7764 23.148 23.821 22.7748 23.821V24.2625C23.1813 24.2625 23.5501 24.2141 23.8784 24.1136L23.7526 23.6908Z" fill="white"/>
<mask id="mask1_1_3443" style="mask-type:alpha" maskUnits="userSpaceOnUse" x="0" y="0" width="30" height="34">
<path d="M27.3716 34H2.54897C1.22616 34 0.153809 32.9127 0.153809 31.5714V2.42857C0.153809 1.08731 1.22616 0 2.54897 0H18.6619L29.7667 11.2597V31.5714C29.7667 32.9127 28.6943 34 27.3716 34Z" fill="url(#paint2_linear_1_3443)"/>
</mask>
<g mask="url(#mask1_1_3443)">
<path opacity="0.05" d="M-1.42466 22.2987C12.0139 22.2987 22.908 11.6974 22.908 -1.3799C22.908 -14.4572 12.0139 -25.0585 -1.42466 -25.0585C-14.8632 -25.0585 -25.7573 -14.4572 -25.7573 -1.3799C-25.7573 11.6974 -14.8632 22.2987 -1.42466 22.2987Z" fill="url(#paint3_linear_1_3443)"/>
<path opacity="0.07" d="M-1.42482 13.4675C7.02313 13.4675 13.8716 6.8201 13.8716 -1.37989C13.8716 -9.57989 7.02313 -16.2273 -1.42482 -16.2273C-9.87277 -16.2273 -16.7212 -9.57989 -16.7212 -1.37989C-16.7212 6.8201 -9.87277 13.4675 -1.42482 13.4675Z" fill="url(#paint4_linear_1_3443)"/>
<g filter="url(#filter1_d_1_3443)">
<path d="M29.7669 11.2597H21.0573C19.7345 11.2597 18.6621 10.1724 18.6621 8.83117V0L29.7669 11.2597Z" fill="url(#paint5_linear_1_3443)"/>
</g>
</g>
</g>
</g>
<defs>
<filter id="filter0_f_1_3443" x="-33.6206" y="-22.552" width="97.3789" height="87.2727" filterUnits="userSpaceOnUse" color-interpolation-filters="sRGB">
<feFlood flood-opacity="0" result="BackgroundImageFix"/>
<feBlend mode="normal" in="SourceGraphic" in2="BackgroundImageFix" result="shape"/>
<feGaussianBlur stdDeviation="19.5" result="effect1_foregroundBlur_1_3443"/>
</filter>
<filter id="filter1_d_1_3443" x="-4.33789" y="-24" width="61.105" height="61.2598" filterUnits="userSpaceOnUse" color-interpolation-filters="sRGB">
<feFlood flood-opacity="0" result="BackgroundImageFix"/>
<feColorMatrix in="SourceAlpha" type="matrix" values="0 0 0 0 0 0 0 0 0 0 0 0 0 0 0 0 0 0 127 0" result="hardAlpha"/>
<feOffset dx="2" dy="1"/>
<feGaussianBlur stdDeviation="12.5"/>
<feColorMatrix type="matrix" values="0 0 0 0 0 0 0 0 0 0 0 0 0 0 0 0 0 0 0.33 0"/>
<feBlend mode="normal" in2="BackgroundImageFix" result="effect1_dropShadow_1_3443"/>
<feBlend mode="normal" in="SourceGraphic" in2="effect1_dropShadow_1_3443" result="shape"/>
</filter>
<linearGradient id="paint0_linear_1_3443" x1="14.9603" y1="0" x2="14.9603" y2="34" gradientUnits="userSpaceOnUse">
<stop stop-color="#FF7979"/>
<stop offset="1" stop-color="#E85555"/>
</linearGradient>
<linearGradient id="paint1_linear_1_3443" x1="14.9603" y1="0" x2="14.9603" y2="34" gradientUnits="userSpaceOnUse">
<stop stop-color="#6ABDF8"/>
<stop offset="1" stop-color="#008BD6"/>
</linearGradient>
<linearGradient id="paint2_linear_1_3443" x1="14.9603" y1="0" x2="14.9603" y2="34" gradientUnits="userSpaceOnUse">
<stop stop-color="#6ABDF8"/>
<stop offset="1" stop-color="#008BD6"/>
</linearGradient>
<linearGradient id="paint3_linear_1_3443" x1="0.342062" y1="-0.566207" x2="7.90214" y2="19.2223" gradientUnits="userSpaceOnUse">
<stop stop-color="white" stop-opacity="0"/>
<stop offset="1" stop-color="white"/>
</linearGradient>
<linearGradient id="paint4_linear_1_3443" x1="-0.314194" y1="-0.869673" x2="4.4173" y2="11.5465" gradientUnits="userSpaceOnUse">
<stop stop-color="white" stop-opacity="0"/>
<stop offset="1" stop-color="white"/>
</linearGradient>
<linearGradient id="paint5_linear_1_3443" x1="24.2145" y1="0" x2="24.2145" y2="11.2597" gradientUnits="userSpaceOnUse">
<stop stop-color="#009FE3"/>
<stop offset="1" stop-color="#0087C1"/>
</linearGradient>
<clipPath id="clip0_1_3443">
<rect width="29.6129" height="34" fill="white" transform="translate(0.153809)"/>
</clipPath>
</defs>
</svg>
