<svg width="14" height="15" viewBox="0 0 14 15" fill="none" xmlns="http://www.w3.org/2000/svg">
<path d="M2.33541 0C5.57171 0 6.9245 1.25587 7.00274 4.37715L7.00975 4.38065C7.08681 1.25704 8.43902 0 11.6771 0C11.6771 3.13413 10.4989 4.50151 7.5901 4.65565V6.42239H6.42239V4.65565C3.51363 4.50151 2.33541 3.13413 2.33541 0ZM13.6879 7.74073C13.3837 7.3186 12.9154 7.05295 12.4016 7.01208C11.8908 6.96771 11.3857 7.15571 11.0407 7.50193L9.92551 8.52484V9.34166C9.92551 10.3074 9.13964 11.0932 8.17395 11.0932H5.25468V9.92551H8.17395C8.49624 9.92551 8.7578 9.66394 8.7578 9.34166V7.5901H5.14492C3.43014 7.5901 1.81695 8.25861 0.603705 9.47127L0.0105094 10.0651L0 14.0125H6.60922C8.21248 14.0125 9.7486 13.4175 10.9344 12.338L13.4555 10.0405C14.0802 9.41405 14.1806 8.42559 13.6879 7.74073Z" fill="#0075FF"/>
</svg>
