<svg width="19" height="19" viewBox="0 0 19 19" fill="none" xmlns="http://www.w3.org/2000/svg">
<path fill-rule="evenodd" clip-rule="evenodd" d="M15.667 18.7188H3.66699C2.01014 18.7188 0.666992 17.3757 0.666992 15.7188V3.71875C0.666992 2.0619 2.01014 0.71875 3.66699 0.71875H15.667C17.3239 0.71875 18.667 2.0619 18.667 3.71875V15.7188C18.667 17.3757 17.3239 18.7188 15.667 18.7188ZM14.667 6.13296L10.0812 10.7188H11.667C12.2193 10.7188 12.667 11.1665 12.667 11.7188C12.667 12.271 12.2193 12.7188 11.667 12.7188H7.66699C7.11471 12.7188 6.66699 12.271 6.66699 11.7188V7.71875C6.66699 7.16647 7.11471 6.71875 7.66699 6.71875C8.21929 6.71875 8.66699 7.16647 8.66699 7.71875V9.30455L13.2528 4.71875H11.667C11.1147 4.71875 10.667 4.27103 10.667 3.71875C10.667 3.16646 11.1147 2.71875 11.667 2.71875H15.667C16.2193 2.71875 16.667 3.16647 16.667 3.71875V7.71875C16.667 8.27105 16.2193 8.71875 15.667 8.71875C15.1147 8.71875 14.667 8.27105 14.667 7.71875V6.13296Z" fill="#0E0C15"/>
</svg>
