<svg width="18" height="19" viewBox="0 0 18 19" fill="none" xmlns="http://www.w3.org/2000/svg">
<path fill-rule="evenodd" clip-rule="evenodd" d="M0 7.11875V14.9935C0 16.8514 0 17.7804 0.36464 18.2027C0.68091 18.569 1.15448 18.7603 1.63642 18.7162C2.19206 18.6656 2.8371 17.9969 4.12716 16.6598L5.05628 15.6968C5.40431 15.3362 5.57832 15.1558 5.7832 15.0266C5.96482 14.9122 6.16368 14.8278 6.37215 14.7766C6.60732 14.7188 6.85793 14.7188 7.3592 14.7188H11.6C13.8402 14.7188 14.9603 14.7187 15.816 14.2827C16.5686 13.8992 17.1805 13.2873 17.564 12.5347C18 11.6791 18 10.559 18 8.31875V7.11875C18 4.87854 18 3.75844 17.564 2.90279C17.1805 2.15014 16.5686 1.53822 15.816 1.15472C14.9603 0.71875 13.8402 0.71875 11.6 0.71875H6.4C4.15979 0.71875 3.03969 0.71875 2.18404 1.15472C1.43139 1.53822 0.81947 2.15014 0.43597 2.90279C5.96046e-08 3.75844 0 4.87854 0 7.11875ZM5 8.71875C5.55228 8.71875 6 8.27105 6 7.71875C6 7.16647 5.55228 6.71875 5 6.71875C4.44772 6.71875 4 7.16647 4 7.71875C4 8.27105 4.44772 8.71875 5 8.71875ZM10 7.71875C10 8.27105 9.5523 8.71875 9 8.71875C8.4477 8.71875 8 8.27105 8 7.71875C8 7.16647 8.4477 6.71875 9 6.71875C9.5523 6.71875 10 7.16647 10 7.71875ZM13 8.71875C13.5523 8.71875 14 8.27105 14 7.71875C14 7.16647 13.5523 6.71875 13 6.71875C12.4477 6.71875 12 7.16647 12 7.71875C12 8.27105 12.4477 8.71875 13 8.71875Z" fill="#12131A"/>
</svg>
