<svg width="25" height="25" viewBox="0 0 25 25" fill="none" xmlns="http://www.w3.org/2000/svg">
<path fill-rule="evenodd" clip-rule="evenodd" d="M19.333 18.2188C19.333 17.3904 18.6614 16.7188 17.833 16.7188H8.33301C5.57159 16.7188 3.33301 14.4802 3.33301 11.7188C3.33301 8.95733 5.57159 6.71875 8.33301 6.71875H11.333V8.71875H8.33301C6.67616 8.71875 5.33301 10.0619 5.33301 11.7188C5.33301 13.3756 6.67616 14.7188 8.33301 14.7188H17.833C19.766 14.7188 21.333 16.2858 21.333 18.2188C21.333 20.1517 19.766 21.7188 17.833 21.7188H4.33301C3.78073 21.7188 3.33301 21.271 3.33301 20.7188C3.33301 20.1665 3.78073 19.7188 4.33301 19.7188H17.833C18.6614 19.7188 19.333 19.0471 19.333 18.2188Z" fill="#0E0C15"/>
<path d="M20.333 4.71875H16.333V6.71875H20.333C20.8853 6.71875 21.333 6.27103 21.333 5.71875C21.333 5.16647 20.8853 4.71875 20.333 4.71875Z" fill="#0E0C15"/>
<path d="M20.333 8.71875H16.333V10.7188H20.333C20.8853 10.7188 21.333 10.271 21.333 9.71875C21.333 9.16647 20.8853 8.71875 20.333 8.71875Z" fill="#0E0C15"/>
<path d="M9.33301 7.71875C9.33301 5.50961 11.1239 3.71875 13.333 3.71875H17.333C17.8853 3.71875 18.333 4.16647 18.333 4.71875V10.7188C18.333 11.271 17.8853 11.7188 17.333 11.7188H13.333C11.1239 11.7188 9.33301 9.92789 9.33301 7.71875Z" fill="#0E0C15"/>
</svg>
